<svg width="1000" height="320" viewBox="0 0 1000 320" fill="none" xmlns="http://www.w3.org/2000/svg" role="img" aria-labelledby="title desc">
  <title id="title">Hello profile card</title>
  <desc id="desc">A cute profile card for a GitHub README.</desc>
  <defs>
    <linearGradient id="bg" x1="0" y1="0" x2="1000" y2="320" gradientUnits="userSpaceOnUse">
      <stop stop-color="#FFF1F7"/>
      <stop offset="0.5" stop-color="#FFF7ED"/>
      <stop offset="1" stop-color="#ECFEFF"/>
    </linearGradient>
    <linearGradient id="screen" x1="315" y1="82" x2="812" y2="238" gradientUnits="userSpaceOnUse">
      <stop stop-color="#111827"/>
      <stop offset="1" stop-color="#1F2937"/>
    </linearGradient>
    <linearGradient id="accent" x1="135" y1="89" x2="285" y2="239" gradientUnits="userSpaceOnUse">
      <stop stop-color="#FF6B9D"/>
      <stop offset="1" stop-color="#7DD3FC"/>
    </linearGradient>
    <filter id="softShadow" x="-30" y="-30" width="1060" height="380" filterUnits="userSpaceOnUse" color-interpolation-filters="sRGB">
      <feDropShadow dx="0" dy="18" stdDeviation="20" flood-color="#FB7185" flood-opacity="0.22"/>
    </filter>
  </defs>

  <rect width="1000" height="320" rx="28" fill="url(#bg)"/>

  <g opacity="0.85">
    <path d="M78 68L88 88L110 91L94 106L98 128L78 117L58 128L62 106L46 91L68 88L78 68Z" fill="#FDBA74"/>
    <path d="M880 48L888 64L906 67L893 80L896 98L880 89L864 98L867 80L854 67L872 64L880 48Z" fill="#F9A8D4"/>
    <path d="M852 232L860 248L878 251L865 264L868 282L852 273L836 282L839 264L826 251L844 248L852 232Z" fill="#67E8F9"/>
    <circle cx="124" cy="244" r="10" fill="#F9A8D4"/>
    <circle cx="910" cy="152" r="8" fill="#FDBA74"/>
    <circle cx="72" cy="172" r="7" fill="#67E8F9"/>
  </g>

  <g filter="url(#softShadow)">
    <rect x="96" y="76" width="220" height="168" rx="28" fill="url(#accent)"/>
    <rect x="128" y="110" width="156" height="94" rx="18" fill="#111827"/>
    <circle cx="176" cy="151" r="10" fill="#FDF2F8"/>
    <circle cx="238" cy="151" r="10" fill="#FDF2F8"/>
    <rect x="184" y="178" width="46" height="8" rx="4" fill="#FDF2F8"/>
    <rect x="168" y="220" width="76" height="10" rx="5" fill="#111827" opacity="0.22"/>

    <rect x="344" y="70" width="560" height="184" rx="24" fill="url(#screen)" stroke="#374151"/>
    <rect x="344" y="70" width="560" height="42" rx="24" fill="#0F172A"/>
    <path d="M344 112H904" stroke="#374151"/>
    <circle cx="374" cy="91" r="6" fill="#FF6B9D"/>
    <circle cx="396" cy="91" r="6" fill="#FDBA74"/>
    <circle cx="418" cy="91" r="6" fill="#67E8F9"/>

    <text x="384" y="154" fill="#FDF2F8" font-family="SFMono-Regular, Consolas, 'Liberation Mono', Menlo, monospace" font-size="22">
      hello, github
    </text>
    <text x="384" y="188" fill="#FFB4D0" font-family="SFMono-Regular, Consolas, 'Liberation Mono', Menlo, monospace" font-size="18">
      solidity / foundry / traces
    </text>
    <text x="384" y="220" fill="#A7F3D0" font-family="SFMono-Regular, Consolas, 'Liberation Mono', Menlo, monospace" font-size="18">
      small pocs, clean notes
    </text>
  </g>
</svg>
